<svg width="40" height="40" viewBox="0 0 40 40" fill="none" xmlns="http://www.w3.org/2000/svg">
<path fill-rule="evenodd" clip-rule="evenodd" d="M15.6225 16.7217H12.0488V28.231H15.6225V16.7217ZM15.9145 13.0757C15.9145 11.9314 14.9845 11 13.842 11C12.6928 11 11.7695 11.9314 11.7695 13.0757C11.7695 14.22 12.6928 15.1514 13.842 15.1514C14.9845 15.1514 15.9145 14.22 15.9145 13.0757ZM21.2881 16.7218H17.8738V28.2312H21.4409V22.5364C21.4409 21.0395 21.7199 19.5825 23.5798 19.5825C25.4131 19.5825 25.433 21.2989 25.433 22.6361V28.2312H29.0001V21.9243C29.0001 18.8241 28.3292 16.4424 24.7157 16.4424C22.9753 16.4424 21.8129 17.3937 21.3346 18.2985H21.2881V16.7218Z" fill="#94A3B8"/>
</svg>
