<svg width="196" height="44" viewBox="0 0 196 44" fill="none" xmlns="http://www.w3.org/2000/svg">
<path d="M0.695402 20.3596C0.670543 20.3596 0.670543 20.3596 0.695402 20.3596C0.670543 20.3845 0.670543 20.3845 0.695402 20.3596C0.844554 20.4093 0.993712 20.4342 1.14286 20.4591C0.993712 20.4342 0.844554 20.4093 0.695402 20.3596ZM0.695402 20.3596C0.670543 20.3596 0.670543 20.3596 0.695402 20.3596C0.670543 20.3845 0.670543 20.3845 0.695402 20.3596C0.844554 20.4093 0.993712 20.4342 1.14286 20.4591C0.993712 20.4342 0.844554 20.4093 0.695402 20.3596ZM0.695402 20.3596C0.670543 20.3596 0.670543 20.3596 0.695402 20.3596C0.670543 20.3845 0.670543 20.3845 0.695402 20.3596C0.844554 20.4093 0.993712 20.4342 1.14286 20.4591C0.993712 20.4342 0.844554 20.4093 0.695402 20.3596ZM0.695402 20.3596C0.670543 20.3596 0.670543 20.3596 0.695402 20.3596C0.670543 20.3845 0.670543 20.3845 0.695402 20.3596C0.844554 20.4093 0.993712 20.4342 1.14286 20.4591C0.993712 20.4342 0.844554 20.4093 0.695402 20.3596ZM0.695402 20.3596C0.670543 20.3596 0.670543 20.3596 0.695402 20.3596C0.670543 20.3845 0.670543 20.3845 0.695402 20.3596C0.844554 20.4093 0.993712 20.4342 1.14286 20.4591C0.993712 20.4342 0.844554 20.4093 0.695402 20.3596Z" fill="white"/>
<path d="M21.0298 6.83632C21.0298 8.94932 20.806 11.0126 20.3835 12.9764C19.9609 14.9403 19.3394 16.8047 18.5439 18.5199C16.8286 19.2906 14.9891 19.912 13.0501 20.3346C11.0614 20.7572 8.99813 21.0058 6.86028 21.0058C4.89644 21.0058 3.00718 20.8069 1.16763 20.4589C1.01848 20.4341 0.869325 20.3843 0.720173 20.3595C0.869325 20.3346 1.01848 20.2849 1.16763 20.26C1.01848 20.2849 0.844465 20.3346 0.695312 20.3595C1.81396 15.2137 4.29984 10.7391 7.63091 7.5075C10.8625 4.20129 15.3123 1.76513 20.4083 0.646484V0.671345C20.806 2.66005 21.0298 4.72333 21.0298 6.83632Z" fill="white"/>
<path d="M1.14321 20.4591C0.994061 20.4342 0.820051 20.3845 0.670898 20.3596H0.695751C0.844904 20.4093 0.994061 20.4342 1.14321 20.4591Z" fill="white"/>
<path d="M20.3593 0.646322C18.3955 0.223723 16.3073 0 14.1943 0C9.9435 0 5.9661 0.894915 2.48588 2.48588C0.894915 5.9661 0 9.9435 0 14.1943C0 16.3322 0.22373 18.3955 0.646329 20.3593C1.76497 15.2136 4.25085 10.739 7.58192 7.50734C10.8384 4.20113 15.2633 1.76497 20.3593 0.646322Z" fill="white"/>
<path d="M23.6404 0.671232C23.6404 0.646373 23.6404 0.671232 23.6404 0.671232C23.6404 0.646373 23.6404 0.646373 23.6404 0.671232C23.5907 0.820385 23.5659 0.969542 23.541 1.11869C23.5659 0.969542 23.6156 0.820385 23.6404 0.671232ZM23.6404 0.671232C23.6404 0.646373 23.6404 0.671232 23.6404 0.671232C23.6404 0.646373 23.6404 0.646373 23.6404 0.671232C23.5907 0.820385 23.5659 0.969542 23.541 1.11869C23.5659 0.969542 23.6156 0.820385 23.6404 0.671232ZM23.6404 0.671232C23.6404 0.646373 23.6404 0.671232 23.6404 0.671232C23.6404 0.646373 23.6404 0.646373 23.6404 0.671232C23.5907 0.820385 23.5659 0.969542 23.541 1.11869C23.5659 0.969542 23.6156 0.820385 23.6404 0.671232ZM23.6404 0.671232C23.6404 0.646373 23.6404 0.671232 23.6404 0.671232C23.6404 0.646373 23.6404 0.646373 23.6404 0.671232C23.5907 0.820385 23.5659 0.969542 23.541 1.11869C23.5659 0.969542 23.6156 0.820385 23.6404 0.671232ZM23.6404 0.671232C23.6404 0.646373 23.6404 0.671232 23.6404 0.671232C23.6404 0.646373 23.6404 0.646373 23.6404 0.671232C23.5907 0.820385 23.5659 0.969542 23.541 1.11869C23.5659 0.969542 23.6156 0.820385 23.6404 0.671232Z" fill="white"/>
<path d="M37.1641 21.0305C35.0511 21.0305 32.9878 20.8067 31.024 20.3841C29.0601 19.9615 27.1957 19.3401 25.4556 18.5446C24.685 16.8293 24.0635 14.9649 23.6409 13.0259C23.2183 11.0372 22.9697 8.97397 22.9697 6.83612C22.9697 4.87228 23.1686 2.95815 23.5166 1.14346C23.5415 0.994305 23.5912 0.845155 23.616 0.696003C23.6409 0.845155 23.6906 0.994305 23.7155 1.14346C23.6906 0.994305 23.6409 0.820295 23.616 0.671143C28.7618 1.78979 33.2364 4.27566 36.468 7.60673C39.7742 10.8384 42.2353 15.2881 43.329 20.3841H43.3042C41.3652 20.8067 39.3019 21.0305 37.1641 21.0305Z" fill="white"/>
<path d="M23.541 1.11881C23.5659 0.969654 23.6156 0.795637 23.6404 0.646484V0.671345C23.6156 0.820497 23.5659 0.969654 23.541 1.11881Z" fill="white"/>
<path d="M43.3785 20.3593C43.8011 18.3955 44.0248 16.3073 44.0248 14.1943C44.0248 9.9435 43.1299 5.9661 41.5389 2.48588C38.0587 0.894915 34.0813 0 29.8305 0C27.6926 0 25.6293 0.223723 23.6406 0.646322C28.7864 1.76497 33.261 4.25085 36.4926 7.58192C39.7988 10.8136 42.2598 15.2633 43.3785 20.3593C43.3785 20.3593 43.3536 20.3593 43.3785 20.3593Z" fill="white"/>
<path d="M43.3283 23.6407C43.3532 23.6407 43.3532 23.6407 43.3283 23.6407C43.3532 23.6407 43.3532 23.6407 43.3283 23.6407C43.1792 23.591 43.03 23.5661 42.8809 23.5413C43.03 23.5661 43.1792 23.6158 43.3283 23.6407ZM43.3283 23.6407C43.3532 23.6407 43.3532 23.6407 43.3283 23.6407C43.3532 23.6407 43.3532 23.6407 43.3283 23.6407C43.1792 23.591 43.03 23.5661 42.8809 23.5413C43.03 23.5661 43.1792 23.6158 43.3283 23.6407ZM43.3283 23.6407C43.3532 23.6407 43.3532 23.6407 43.3283 23.6407C43.3532 23.6407 43.3532 23.6407 43.3283 23.6407C43.1792 23.591 43.03 23.5661 42.8809 23.5413C43.03 23.5661 43.1792 23.6158 43.3283 23.6407ZM43.3283 23.6407C43.3532 23.6407 43.3532 23.6407 43.3283 23.6407C43.3532 23.6407 43.3532 23.6407 43.3283 23.6407C43.1792 23.591 43.03 23.5661 42.8809 23.5413C43.03 23.5661 43.1792 23.6158 43.3283 23.6407ZM43.3283 23.6407C43.3532 23.6407 43.3532 23.6407 43.3283 23.6407C43.3532 23.6407 43.3532 23.6407 43.3283 23.6407C43.1792 23.591 43.03 23.5661 42.8809 23.5413C43.03 23.5661 43.1792 23.6158 43.3283 23.6407Z" fill="white"/>
<path d="M22.9941 37.1641C22.9941 35.0511 23.2179 32.9878 23.6405 31.024C24.0631 29.0602 24.6845 27.1958 25.48 25.4805C27.1953 24.7099 29.0348 24.0884 30.9738 23.6658C32.9625 23.2432 35.0258 22.9946 37.1636 22.9946C39.1275 22.9946 41.0167 23.1935 42.8563 23.5415C43.0054 23.5664 43.1546 23.6161 43.3037 23.641C43.1546 23.6658 43.0054 23.7155 42.8563 23.7404C43.0054 23.7155 43.1794 23.6658 43.3286 23.641C42.21 28.7867 39.7241 33.2613 36.393 36.4929C33.1614 39.7991 28.7117 42.2353 23.6156 43.3539V43.3291C23.2179 41.3652 22.9941 39.302 22.9941 37.1641Z" fill="white"/>
<path d="M42.8809 23.5413C43.03 23.5661 43.204 23.6158 43.3532 23.6407H43.3283C43.1792 23.6158 43.03 23.5661 42.8809 23.5413Z" fill="white"/>
<path d="M23.665 43.3539C25.6289 43.7765 27.717 44.0002 29.83 44.0002C34.0809 44.0002 38.0582 43.1053 41.5385 41.5143C43.1294 38.0341 44.0244 34.0567 44.0244 29.8058C44.0244 27.668 43.8006 25.6047 43.378 23.6409C42.2594 28.7866 39.7735 33.2612 36.4424 36.4929C33.1859 39.7991 28.7611 42.2352 23.665 43.3539Z" fill="white"/>
<path d="M20.3838 43.3288C20.3838 43.3537 20.3838 43.3537 20.3838 43.3288C20.3838 43.3537 20.3838 43.3537 20.3838 43.3288C20.4335 43.1796 20.4584 43.0305 20.4832 42.8813C20.4584 43.0305 20.4086 43.1796 20.3838 43.3288ZM20.3838 43.3288C20.3838 43.3537 20.3838 43.3537 20.3838 43.3288C20.3838 43.3537 20.3838 43.3537 20.3838 43.3288C20.4335 43.1796 20.4584 43.0305 20.4832 42.8813C20.4584 43.0305 20.4086 43.1796 20.3838 43.3288ZM20.3838 43.3288C20.3838 43.3537 20.3838 43.3537 20.3838 43.3288C20.3838 43.3537 20.3838 43.3537 20.3838 43.3288C20.4335 43.1796 20.4584 43.0305 20.4832 42.8813C20.4584 43.0305 20.4086 43.1796 20.3838 43.3288ZM20.3838 43.3288C20.3838 43.3537 20.3838 43.3537 20.3838 43.3288C20.3838 43.3537 20.3838 43.3537 20.3838 43.3288C20.4335 43.1796 20.4584 43.0305 20.4832 42.8813C20.4584 43.0305 20.4086 43.1796 20.3838 43.3288ZM20.3838 43.3288C20.3838 43.3537 20.3838 43.3537 20.3838 43.3288C20.3838 43.3537 20.3838 43.3537 20.3838 43.3288C20.4335 43.1796 20.4584 43.0305 20.4832 42.8813C20.4584 43.0305 20.4086 43.1796 20.3838 43.3288Z" fill="white"/>
<path d="M6.86028 22.9697C8.97328 22.9697 11.0366 23.1935 13.0004 23.6161C14.9642 24.0387 16.8287 24.6601 18.5688 25.4556C19.3394 27.1709 19.9609 29.0353 20.3835 30.9742C20.8061 32.9629 21.0546 35.0262 21.0546 37.1641C21.0546 39.1279 20.8558 41.042 20.5077 42.8567C20.4829 43.0059 20.4332 43.155 20.4083 43.3042C20.3834 43.155 20.3337 43.0059 20.3089 42.8567C20.3337 43.0059 20.3834 43.1799 20.4083 43.329C15.2625 42.2104 10.788 39.7245 7.55634 36.3935C4.25012 33.1618 1.7891 28.7121 0.695312 23.6161H0.720173C2.65916 23.2183 4.72243 22.9697 6.86028 22.9697Z" fill="white"/>
<path d="M20.4832 42.8813C20.4584 43.0305 20.4086 43.2045 20.3838 43.3537V43.3288C20.4086 43.1796 20.4584 43.0305 20.4832 42.8813Z" fill="white"/>
<path d="M0.646329 23.6406C0.22373 25.6045 0 27.6926 0 29.8056C0 34.0564 0.894915 38.0339 2.48588 41.5141C5.9661 43.105 9.9435 44 14.1943 44C16.3322 44 18.3955 43.7762 20.3842 43.3536C15.2384 42.235 10.7638 39.7491 7.5322 36.418C4.22599 33.1864 1.76497 28.7367 0.646329 23.6406C0.671188 23.6406 0.646329 23.6406 0.646329 23.6406Z" fill="white"/>
<path d="M53.7044 31V13.72H60.4964C61.5924 13.72 62.5124 13.944 63.2564 14.392C64.0004 14.84 64.5604 15.42 64.9364 16.132C65.3124 16.836 65.5004 17.58 65.5004 18.364C65.5004 19.316 65.2644 20.132 64.7924 20.812C64.3284 21.492 63.7004 21.956 62.9084 22.204L62.8844 21.616C63.9884 21.888 64.8364 22.42 65.4284 23.212C66.0204 23.996 66.3164 24.912 66.3164 25.96C66.3164 26.976 66.1124 27.86 65.7044 28.612C65.3044 29.364 64.7164 29.952 63.9404 30.376C63.1724 30.792 62.2404 31 61.1444 31H53.7044ZM56.2484 28.612H60.7604C61.3284 28.612 61.8364 28.504 62.2844 28.288C62.7404 28.072 63.0964 27.764 63.3524 27.364C63.6164 26.956 63.7484 26.472 63.7484 25.912C63.7484 25.392 63.6324 24.924 63.4004 24.508C63.1764 24.084 62.8484 23.752 62.4164 23.512C61.9924 23.264 61.4924 23.14 60.9164 23.14H56.2484V28.612ZM56.2484 20.776H60.4604C60.9244 20.776 61.3404 20.684 61.7084 20.5C62.0844 20.308 62.3804 20.036 62.5964 19.684C62.8204 19.324 62.9324 18.892 62.9324 18.388C62.9324 17.716 62.7084 17.164 62.2604 16.732C61.8124 16.3 61.2124 16.084 60.4604 16.084H56.2484V20.776ZM68.7044 31V18.04H70.9364V21.184L70.6244 20.776C70.7844 20.36 70.9924 19.98 71.2484 19.636C71.5044 19.284 71.8004 18.996 72.1364 18.772C72.4644 18.532 72.8284 18.348 73.2284 18.22C73.6364 18.084 74.0524 18.004 74.4764 17.98C74.9004 17.948 75.3084 17.968 75.7004 18.04V20.392C75.2764 20.28 74.8044 20.248 74.2844 20.296C73.7724 20.344 73.3004 20.508 72.8684 20.788C72.4604 21.052 72.1364 21.372 71.8964 21.748C71.6644 22.124 71.4964 22.544 71.3924 23.008C71.2884 23.464 71.2364 23.948 71.2364 24.46V31H68.7044ZM81.2707 31.36C80.3107 31.36 79.5067 31.184 78.8587 30.832C78.2107 30.472 77.7187 30 77.3827 29.416C77.0547 28.824 76.8907 28.176 76.8907 27.472C76.8907 26.816 77.0067 26.24 77.2387 25.744C77.4707 25.248 77.8147 24.828 78.2707 24.484C78.7267 24.132 79.2867 23.848 79.9507 23.632C80.5267 23.464 81.1787 23.316 81.9067 23.188C82.6347 23.06 83.3987 22.94 84.1987 22.828C85.0067 22.716 85.8067 22.604 86.5987 22.492L85.6867 22.996C85.7027 21.98 85.4867 21.228 85.0387 20.74C84.5987 20.244 83.8387 19.996 82.7587 19.996C82.0787 19.996 81.4547 20.156 80.8867 20.476C80.3187 20.788 79.9227 21.308 79.6987 22.036L77.3587 21.316C77.6787 20.204 78.2867 19.32 79.1827 18.664C80.0867 18.008 81.2867 17.68 82.7827 17.68C83.9427 17.68 84.9507 17.88 85.8067 18.28C86.6707 18.672 87.3027 19.296 87.7027 20.152C87.9107 20.576 88.0387 21.024 88.0867 21.496C88.1347 21.968 88.1587 22.476 88.1587 23.02V31H85.9387V28.036L86.3707 28.42C85.8347 29.412 85.1507 30.152 84.3187 30.64C83.4947 31.12 82.4787 31.36 81.2707 31.36ZM81.7147 29.308C82.4267 29.308 83.0387 29.184 83.5507 28.936C84.0627 28.68 84.4747 28.356 84.7867 27.964C85.0987 27.572 85.3027 27.164 85.3987 26.74C85.5347 26.356 85.6107 25.924 85.6267 25.444C85.6507 24.964 85.6627 24.58 85.6627 24.292L86.4787 24.592C85.6867 24.712 84.9667 24.82 84.3187 24.916C83.6707 25.012 83.0827 25.108 82.5547 25.204C82.0347 25.292 81.5707 25.4 81.1627 25.528C80.8187 25.648 80.5107 25.792 80.2387 25.96C79.9747 26.128 79.7627 26.332 79.6027 26.572C79.4507 26.812 79.3747 27.104 79.3747 27.448C79.3747 27.784 79.4587 28.096 79.6267 28.384C79.7947 28.664 80.0507 28.888 80.3947 29.056C80.7387 29.224 81.1787 29.308 81.7147 29.308ZM100.371 31V24.628C100.371 24.124 100.327 23.608 100.239 23.08C100.159 22.544 99.9987 22.048 99.7587 21.592C99.5267 21.136 99.1947 20.768 98.7627 20.488C98.3387 20.208 97.7827 20.068 97.0947 20.068C96.6467 20.068 96.2227 20.144 95.8227 20.296C95.4227 20.44 95.0707 20.676 94.7667 21.004C94.4707 21.332 94.2347 21.764 94.0587 22.3C93.8907 22.836 93.8067 23.488 93.8067 24.256L92.2467 23.668C92.2467 22.492 92.4667 21.456 92.9067 20.56C93.3467 19.656 93.9787 18.952 94.8027 18.448C95.6267 17.944 96.6227 17.692 97.7907 17.692C98.6867 17.692 99.4387 17.836 100.047 18.124C100.655 18.412 101.147 18.792 101.523 19.264C101.907 19.728 102.199 20.236 102.399 20.788C102.599 21.34 102.735 21.88 102.807 22.408C102.879 22.936 102.915 23.4 102.915 23.8V31H100.371ZM91.2627 31V18.04H93.5067V21.784H93.8067V31H91.2627ZM111.024 31.36C109.816 31.36 108.772 31.06 107.892 30.46C107.02 29.86 106.344 29.044 105.864 28.012C105.392 26.972 105.156 25.804 105.156 24.508C105.156 23.204 105.396 22.04 105.876 21.016C106.356 19.984 107.036 19.172 107.916 18.58C108.804 17.98 109.856 17.68 111.072 17.68C112.296 17.68 113.324 17.98 114.156 18.58C114.996 19.172 115.628 19.984 116.052 21.016C116.484 22.048 116.7 23.212 116.7 24.508C116.7 25.804 116.484 26.968 116.052 28C115.62 29.032 114.984 29.852 114.144 30.46C113.304 31.06 112.264 31.36 111.024 31.36ZM111.372 29.092C112.196 29.092 112.868 28.896 113.388 28.504C113.908 28.112 114.288 27.572 114.528 26.884C114.768 26.196 114.888 25.404 114.888 24.508C114.888 23.612 114.764 22.82 114.516 22.132C114.276 21.444 113.9 20.908 113.388 20.524C112.884 20.14 112.24 19.948 111.456 19.948C110.624 19.948 109.94 20.152 109.404 20.56C108.868 20.968 108.468 21.516 108.204 22.204C107.948 22.892 107.82 23.66 107.82 24.508C107.82 25.364 107.948 26.14 108.204 26.836C108.468 27.524 108.86 28.072 109.38 28.48C109.908 28.888 110.572 29.092 111.372 29.092ZM114.888 31V21.676H114.6V13.72H117.12V31H114.888ZM125.523 31V13.72H128.031V28.636H135.855V31H125.523ZM143.52 31.36C142.224 31.36 141.1 31.068 140.148 30.484C139.196 29.9 138.46 29.096 137.94 28.072C137.428 27.04 137.172 25.852 137.172 24.508C137.172 23.156 137.436 21.968 137.964 20.944C138.492 19.912 139.232 19.112 140.184 18.544C141.136 17.968 142.248 17.68 143.52 17.68C144.816 17.68 145.94 17.972 146.892 18.556C147.844 19.14 148.58 19.944 149.1 20.968C149.62 21.992 149.88 23.172 149.88 24.508C149.88 25.86 149.616 27.052 149.088 28.084C148.568 29.108 147.832 29.912 146.88 30.496C145.928 31.072 144.808 31.36 143.52 31.36ZM143.52 28.996C144.76 28.996 145.684 28.58 146.292 27.748C146.908 26.908 147.216 25.828 147.216 24.508C147.216 23.156 146.904 22.076 146.28 21.268C145.664 20.452 144.744 20.044 143.52 20.044C142.68 20.044 141.988 20.236 141.444 20.62C140.9 20.996 140.496 21.52 140.232 22.192C139.968 22.856 139.836 23.628 139.836 24.508C139.836 25.868 140.148 26.956 140.772 27.772C141.396 28.588 142.312 28.996 143.52 28.996ZM157.857 37.12C157.161 37.12 156.485 37.012 155.829 36.796C155.181 36.58 154.589 36.26 154.053 35.836C153.517 35.42 153.073 34.904 152.721 34.288L155.037 33.112C155.317 33.664 155.717 34.068 156.237 34.324C156.757 34.58 157.305 34.708 157.881 34.708C158.593 34.708 159.201 34.58 159.705 34.324C160.209 34.076 160.589 33.7 160.845 33.196C161.109 32.692 161.237 32.068 161.229 31.324V27.7H161.529V18.04H163.749V31.348C163.749 31.692 163.737 32.02 163.713 32.332C163.689 32.644 163.645 32.956 163.581 33.268C163.397 34.14 163.045 34.86 162.525 35.428C162.013 35.996 161.357 36.42 160.557 36.7C159.765 36.98 158.865 37.12 157.857 37.12ZM157.665 31.36C156.457 31.36 155.413 31.06 154.533 30.46C153.661 29.86 152.985 29.044 152.505 28.012C152.033 26.972 151.797 25.804 151.797 24.508C151.797 23.204 152.037 22.04 152.517 21.016C152.997 19.984 153.677 19.172 154.557 18.58C155.445 17.98 156.497 17.68 157.713 17.68C158.937 17.68 159.965 17.98 160.797 18.58C161.637 19.172 162.269 19.984 162.693 21.016C163.125 22.048 163.341 23.212 163.341 24.508C163.341 25.804 163.125 26.968 162.693 28C162.261 29.032 161.625 29.852 160.785 30.46C159.945 31.06 158.905 31.36 157.665 31.36ZM158.013 29.092C158.837 29.092 159.509 28.896 160.029 28.504C160.549 28.112 160.929 27.572 161.169 26.884C161.409 26.196 161.529 25.404 161.529 24.508C161.529 23.612 161.405 22.82 161.157 22.132C160.917 21.444 160.541 20.908 160.029 20.524C159.525 20.14 158.881 19.948 158.097 19.948C157.265 19.948 156.581 20.152 156.045 20.56C155.509 20.968 155.109 21.516 154.845 22.204C154.589 22.892 154.461 23.66 154.461 24.508C154.461 25.364 154.589 26.14 154.845 26.836C155.109 27.524 155.501 28.072 156.021 28.48C156.549 28.888 157.213 29.092 158.013 29.092ZM172.746 31.36C171.45 31.36 170.326 31.068 169.374 30.484C168.422 29.9 167.686 29.096 167.166 28.072C166.654 27.04 166.398 25.852 166.398 24.508C166.398 23.156 166.662 21.968 167.19 20.944C167.718 19.912 168.458 19.112 169.41 18.544C170.362 17.968 171.474 17.68 172.746 17.68C174.042 17.68 175.166 17.972 176.118 18.556C177.07 19.14 177.806 19.944 178.326 20.968C178.846 21.992 179.106 23.172 179.106 24.508C179.106 25.86 178.842 27.052 178.314 28.084C177.794 29.108 177.058 29.912 176.106 30.496C175.154 31.072 174.034 31.36 172.746 31.36ZM172.746 28.996C173.986 28.996 174.91 28.58 175.518 27.748C176.134 26.908 176.442 25.828 176.442 24.508C176.442 23.156 176.13 22.076 175.506 21.268C174.89 20.452 173.97 20.044 172.746 20.044C171.906 20.044 171.214 20.236 170.67 20.62C170.126 20.996 169.722 21.52 169.458 22.192C169.194 22.856 169.062 23.628 169.062 24.508C169.062 25.868 169.374 26.956 169.998 27.772C170.622 28.588 171.538 28.996 172.746 28.996Z" fill="white"/>
</svg>
