<svg width="195" height="44" viewBox="0 0 195 44" fill="none" xmlns="http://www.w3.org/2000/svg">
<path d="M0.695402 20.3596C0.670543 20.3596 0.670543 20.3596 0.695402 20.3596C0.670543 20.3845 0.670543 20.3845 0.695402 20.3596C0.844554 20.4093 0.993712 20.4342 1.14286 20.4591C0.993712 20.4342 0.844554 20.4093 0.695402 20.3596ZM0.695402 20.3596C0.670543 20.3596 0.670543 20.3596 0.695402 20.3596C0.670543 20.3845 0.670543 20.3845 0.695402 20.3596C0.844554 20.4093 0.993712 20.4342 1.14286 20.4591C0.993712 20.4342 0.844554 20.4093 0.695402 20.3596ZM0.695402 20.3596C0.670543 20.3596 0.670543 20.3596 0.695402 20.3596C0.670543 20.3845 0.670543 20.3845 0.695402 20.3596C0.844554 20.4093 0.993712 20.4342 1.14286 20.4591C0.993712 20.4342 0.844554 20.4093 0.695402 20.3596ZM0.695402 20.3596C0.670543 20.3596 0.670543 20.3596 0.695402 20.3596C0.670543 20.3845 0.670543 20.3845 0.695402 20.3596C0.844554 20.4093 0.993712 20.4342 1.14286 20.4591C0.993712 20.4342 0.844554 20.4093 0.695402 20.3596ZM0.695402 20.3596C0.670543 20.3596 0.670543 20.3596 0.695402 20.3596C0.670543 20.3845 0.670543 20.3845 0.695402 20.3596C0.844554 20.4093 0.993712 20.4342 1.14286 20.4591C0.993712 20.4342 0.844554 20.4093 0.695402 20.3596Z" fill="#0D5074"/>
<path d="M21.0298 6.83632C21.0298 8.94932 20.806 11.0126 20.3835 12.9764C19.9609 14.9403 19.3394 16.8047 18.5439 18.5199C16.8286 19.2906 14.9891 19.912 13.0501 20.3346C11.0614 20.7572 8.99813 21.0058 6.86028 21.0058C4.89644 21.0058 3.00718 20.8069 1.16763 20.4589C1.01848 20.4341 0.869325 20.3843 0.720173 20.3595C0.869325 20.3346 1.01848 20.2849 1.16763 20.26C1.01848 20.2849 0.844465 20.3346 0.695312 20.3595C1.81396 15.2137 4.29984 10.7391 7.63091 7.5075C10.8625 4.20129 15.3123 1.76513 20.4083 0.646484V0.671345C20.806 2.66005 21.0298 4.72333 21.0298 6.83632Z" fill="#0D5074"/>
<path d="M1.14321 20.4591C0.994061 20.4342 0.820051 20.3845 0.670898 20.3596H0.695751C0.844904 20.4093 0.994061 20.4342 1.14321 20.4591Z" fill="#0D5074"/>
<path d="M20.3593 0.646322C18.3955 0.223723 16.3073 0 14.1943 0C9.9435 0 5.9661 0.894915 2.48588 2.48588C0.894915 5.9661 0 9.9435 0 14.1943C0 16.3322 0.22373 18.3955 0.646329 20.3593C1.76497 15.2136 4.25085 10.739 7.58192 7.50734C10.8384 4.20113 15.2633 1.76497 20.3593 0.646322Z" fill="#0D5074"/>
<path d="M23.6404 0.671232C23.6404 0.646373 23.6404 0.671232 23.6404 0.671232C23.6404 0.646373 23.6404 0.646373 23.6404 0.671232C23.5907 0.820385 23.5659 0.969542 23.541 1.11869C23.5659 0.969542 23.6156 0.820385 23.6404 0.671232ZM23.6404 0.671232C23.6404 0.646373 23.6404 0.671232 23.6404 0.671232C23.6404 0.646373 23.6404 0.646373 23.6404 0.671232C23.5907 0.820385 23.5659 0.969542 23.541 1.11869C23.5659 0.969542 23.6156 0.820385 23.6404 0.671232ZM23.6404 0.671232C23.6404 0.646373 23.6404 0.671232 23.6404 0.671232C23.6404 0.646373 23.6404 0.646373 23.6404 0.671232C23.5907 0.820385 23.5659 0.969542 23.541 1.11869C23.5659 0.969542 23.6156 0.820385 23.6404 0.671232ZM23.6404 0.671232C23.6404 0.646373 23.6404 0.671232 23.6404 0.671232C23.6404 0.646373 23.6404 0.646373 23.6404 0.671232C23.5907 0.820385 23.5659 0.969542 23.541 1.11869C23.5659 0.969542 23.6156 0.820385 23.6404 0.671232ZM23.6404 0.671232C23.6404 0.646373 23.6404 0.671232 23.6404 0.671232C23.6404 0.646373 23.6404 0.646373 23.6404 0.671232C23.5907 0.820385 23.5659 0.969542 23.541 1.11869C23.5659 0.969542 23.6156 0.820385 23.6404 0.671232Z" fill="white"/>
<path d="M37.1641 21.0305C35.0511 21.0305 32.9878 20.8067 31.024 20.3841C29.0601 19.9615 27.1957 19.3401 25.4556 18.5446C24.685 16.8293 24.0635 14.9649 23.6409 13.0259C23.2183 11.0372 22.9697 8.97397 22.9697 6.83612C22.9697 4.87228 23.1686 2.95815 23.5166 1.14346C23.5415 0.994305 23.5912 0.845155 23.616 0.696003C23.6409 0.845155 23.6906 0.994305 23.7155 1.14346C23.6906 0.994305 23.6409 0.820295 23.616 0.671143C28.7618 1.78979 33.2364 4.27566 36.468 7.60673C39.7742 10.8384 42.2353 15.2881 43.329 20.3841H43.3042C41.3652 20.8067 39.3019 21.0305 37.1641 21.0305Z" fill="white"/>
<path d="M23.541 1.11881C23.5659 0.969654 23.6156 0.795637 23.6404 0.646484V0.671345C23.6156 0.820497 23.5659 0.969654 23.541 1.11881Z" fill="white"/>
<path d="M43.3785 20.3593C43.8011 18.3955 44.0248 16.3073 44.0248 14.1943C44.0248 9.9435 43.1299 5.9661 41.5389 2.48588C38.0587 0.894915 34.0813 0 29.8305 0C27.6926 0 25.6293 0.223723 23.6406 0.646322C28.7864 1.76497 33.261 4.25085 36.4926 7.58192C39.7988 10.8136 42.2598 15.2633 43.3785 20.3593C43.3785 20.3593 43.3536 20.3593 43.3785 20.3593Z" fill="white"/>
<path d="M43.3283 23.6407C43.3532 23.6407 43.3532 23.6407 43.3283 23.6407C43.3532 23.6407 43.3532 23.6407 43.3283 23.6407C43.1792 23.591 43.03 23.5661 42.8809 23.5413C43.03 23.5661 43.1792 23.6158 43.3283 23.6407ZM43.3283 23.6407C43.3532 23.6407 43.3532 23.6407 43.3283 23.6407C43.3532 23.6407 43.3532 23.6407 43.3283 23.6407C43.1792 23.591 43.03 23.5661 42.8809 23.5413C43.03 23.5661 43.1792 23.6158 43.3283 23.6407ZM43.3283 23.6407C43.3532 23.6407 43.3532 23.6407 43.3283 23.6407C43.3532 23.6407 43.3532 23.6407 43.3283 23.6407C43.1792 23.591 43.03 23.5661 42.8809 23.5413C43.03 23.5661 43.1792 23.6158 43.3283 23.6407ZM43.3283 23.6407C43.3532 23.6407 43.3532 23.6407 43.3283 23.6407C43.3532 23.6407 43.3532 23.6407 43.3283 23.6407C43.1792 23.591 43.03 23.5661 42.8809 23.5413C43.03 23.5661 43.1792 23.6158 43.3283 23.6407ZM43.3283 23.6407C43.3532 23.6407 43.3532 23.6407 43.3283 23.6407C43.3532 23.6407 43.3532 23.6407 43.3283 23.6407C43.1792 23.591 43.03 23.5661 42.8809 23.5413C43.03 23.5661 43.1792 23.6158 43.3283 23.6407Z" fill="#0D5074"/>
<path d="M22.9941 37.1641C22.9941 35.0511 23.2179 32.9878 23.6405 31.024C24.0631 29.0602 24.6845 27.1958 25.48 25.4805C27.1953 24.7099 29.0348 24.0884 30.9738 23.6658C32.9625 23.2432 35.0258 22.9946 37.1636 22.9946C39.1275 22.9946 41.0167 23.1935 42.8563 23.5415C43.0054 23.5664 43.1546 23.6161 43.3037 23.641C43.1546 23.6658 43.0054 23.7155 42.8563 23.7404C43.0054 23.7155 43.1794 23.6658 43.3286 23.641C42.21 28.7867 39.7241 33.2613 36.393 36.4929C33.1614 39.7991 28.7117 42.2353 23.6156 43.3539V43.3291C23.2179 41.3652 22.9941 39.302 22.9941 37.1641Z" fill="#0D5074"/>
<path d="M42.8809 23.5413C43.03 23.5661 43.204 23.6158 43.3532 23.6407H43.3283C43.1792 23.6158 43.03 23.5661 42.8809 23.5413Z" fill="#0D5074"/>
<path d="M23.665 43.3539C25.6289 43.7765 27.717 44.0002 29.83 44.0002C34.0809 44.0002 38.0582 43.1053 41.5385 41.5143C43.1294 38.0341 44.0244 34.0567 44.0244 29.8058C44.0244 27.668 43.8006 25.6047 43.378 23.6409C42.2594 28.7866 39.7735 33.2612 36.4424 36.4929C33.1859 39.7991 28.7611 42.2352 23.665 43.3539Z" fill="#0D5074"/>
<path d="M20.3838 43.3288C20.3838 43.3537 20.3838 43.3537 20.3838 43.3288C20.3838 43.3537 20.3838 43.3537 20.3838 43.3288C20.4335 43.1796 20.4584 43.0305 20.4832 42.8813C20.4584 43.0305 20.4086 43.1796 20.3838 43.3288ZM20.3838 43.3288C20.3838 43.3537 20.3838 43.3537 20.3838 43.3288C20.3838 43.3537 20.3838 43.3537 20.3838 43.3288C20.4335 43.1796 20.4584 43.0305 20.4832 42.8813C20.4584 43.0305 20.4086 43.1796 20.3838 43.3288ZM20.3838 43.3288C20.3838 43.3537 20.3838 43.3537 20.3838 43.3288C20.3838 43.3537 20.3838 43.3537 20.3838 43.3288C20.4335 43.1796 20.4584 43.0305 20.4832 42.8813C20.4584 43.0305 20.4086 43.1796 20.3838 43.3288ZM20.3838 43.3288C20.3838 43.3537 20.3838 43.3537 20.3838 43.3288C20.3838 43.3537 20.3838 43.3537 20.3838 43.3288C20.4335 43.1796 20.4584 43.0305 20.4832 42.8813C20.4584 43.0305 20.4086 43.1796 20.3838 43.3288ZM20.3838 43.3288C20.3838 43.3537 20.3838 43.3537 20.3838 43.3288C20.3838 43.3537 20.3838 43.3537 20.3838 43.3288C20.4335 43.1796 20.4584 43.0305 20.4832 42.8813C20.4584 43.0305 20.4086 43.1796 20.3838 43.3288Z" fill="white"/>
<path d="M6.86028 22.9697C8.97328 22.9697 11.0366 23.1935 13.0004 23.6161C14.9642 24.0387 16.8287 24.6601 18.5688 25.4556C19.3394 27.1709 19.9609 29.0353 20.3835 30.9742C20.8061 32.9629 21.0546 35.0262 21.0546 37.1641C21.0546 39.1279 20.8558 41.042 20.5077 42.8567C20.4829 43.0059 20.4332 43.155 20.4083 43.3042C20.3834 43.155 20.3337 43.0059 20.3089 42.8567C20.3337 43.0059 20.3834 43.1799 20.4083 43.329C15.2625 42.2104 10.788 39.7245 7.55634 36.3935C4.25012 33.1618 1.7891 28.7121 0.695312 23.6161H0.720173C2.65916 23.2183 4.72243 22.9697 6.86028 22.9697Z" fill="white"/>
<path d="M20.4832 42.8813C20.4584 43.0305 20.4086 43.2045 20.3838 43.3537V43.3288C20.4086 43.1796 20.4584 43.0305 20.4832 42.8813Z" fill="white"/>
<path d="M0.646329 23.6406C0.22373 25.6045 0 27.6926 0 29.8056C0 34.0564 0.894915 38.0339 2.48588 41.5141C5.9661 43.105 9.9435 44 14.1943 44C16.3322 44 18.3955 43.7762 20.3842 43.3536C15.2384 42.235 10.7638 39.7491 7.5322 36.418C4.22599 33.1864 1.76497 28.7367 0.646329 23.6406C0.671188 23.6406 0.646329 23.6406 0.646329 23.6406Z" fill="white"/>
<path d="M53.7044 31V13.72H55.9724L62.2364 26.716L68.4644 13.72H70.7564V30.988H68.3804V19.168L62.8004 31H61.6604L56.0684 19.168V31H53.7044ZM79.8665 31.36C78.5785 31.36 77.4465 31.08 76.4705 30.52C75.5025 29.952 74.7465 29.164 74.2025 28.156C73.6665 27.14 73.3985 25.964 73.3985 24.628C73.3985 23.212 73.6625 21.984 74.1905 20.944C74.7265 19.904 75.4705 19.1 76.4225 18.532C77.3745 17.964 78.4825 17.68 79.7465 17.68C81.0665 17.68 82.1905 17.988 83.1185 18.604C84.0465 19.212 84.7385 20.08 85.1945 21.208C85.6585 22.336 85.8425 23.676 85.7465 25.228H83.2385V24.316C83.2225 22.812 82.9345 21.7 82.3745 20.98C81.8225 20.26 80.9785 19.9 79.8425 19.9C78.5865 19.9 77.6425 20.296 77.0105 21.088C76.3785 21.88 76.0625 23.024 76.0625 24.52C76.0625 25.944 76.3785 27.048 77.0105 27.832C77.6425 28.608 78.5545 28.996 79.7465 28.996C80.5305 28.996 81.2065 28.82 81.7745 28.468C82.3505 28.108 82.7985 27.596 83.1185 26.932L85.5785 27.712C85.0745 28.872 84.3105 29.772 83.2865 30.412C82.2625 31.044 81.1225 31.36 79.8665 31.36ZM75.2465 25.228V23.272H84.4985V25.228H75.2465ZM95.8548 31C95.0388 31.16 94.2388 31.228 93.4548 31.204C92.6708 31.18 91.9708 31.028 91.3548 30.748C90.7388 30.468 90.2748 30.028 89.9628 29.428C89.6828 28.892 89.5308 28.348 89.5068 27.796C89.4908 27.236 89.4828 26.604 89.4828 25.9V14.44H92.0028V25.78C92.0028 26.3 92.0068 26.752 92.0148 27.136C92.0308 27.52 92.1148 27.844 92.2668 28.108C92.5548 28.604 93.0108 28.888 93.6348 28.96C94.2668 29.024 95.0068 28.996 95.8548 28.876V31ZM86.9988 20.056V18.04H95.8548V20.056H86.9988ZM102.247 31.36C101.287 31.36 100.483 31.184 99.8352 30.832C99.1872 30.472 98.6952 30 98.3592 29.416C98.0312 28.824 97.8672 28.176 97.8672 27.472C97.8672 26.816 97.9832 26.24 98.2152 25.744C98.4472 25.248 98.7912 24.828 99.2472 24.484C99.7032 24.132 100.263 23.848 100.927 23.632C101.503 23.464 102.155 23.316 102.883 23.188C103.611 23.06 104.375 22.94 105.175 22.828C105.983 22.716 106.783 22.604 107.575 22.492L106.663 22.996C106.679 21.98 106.463 21.228 106.015 20.74C105.575 20.244 104.815 19.996 103.735 19.996C103.055 19.996 102.431 20.156 101.863 20.476C101.295 20.788 100.899 21.308 100.675 22.036L98.3352 21.316C98.6552 20.204 99.2632 19.32 100.159 18.664C101.063 18.008 102.263 17.68 103.759 17.68C104.919 17.68 105.927 17.88 106.783 18.28C107.647 18.672 108.279 19.296 108.679 20.152C108.887 20.576 109.015 21.024 109.063 21.496C109.111 21.968 109.135 22.476 109.135 23.02V31H106.915V28.036L107.347 28.42C106.811 29.412 106.127 30.152 105.295 30.64C104.471 31.12 103.455 31.36 102.247 31.36ZM102.691 29.308C103.403 29.308 104.015 29.184 104.527 28.936C105.039 28.68 105.451 28.356 105.763 27.964C106.075 27.572 106.279 27.164 106.375 26.74C106.511 26.356 106.587 25.924 106.603 25.444C106.627 24.964 106.639 24.58 106.639 24.292L107.455 24.592C106.663 24.712 105.943 24.82 105.295 24.916C104.647 25.012 104.059 25.108 103.531 25.204C103.011 25.292 102.547 25.4 102.139 25.528C101.795 25.648 101.487 25.792 101.215 25.96C100.951 26.128 100.739 26.332 100.579 26.572C100.427 26.812 100.351 27.104 100.351 27.448C100.351 27.784 100.435 28.096 100.603 28.384C100.771 28.664 101.027 28.888 101.371 29.056C101.715 29.224 102.155 29.308 102.691 29.308ZM117.056 31V13.72H128.096V16.084H119.564V20.932H126.656V23.296H119.564V28.636H128.096V31H117.056ZM135.934 31.348C134.358 31.348 133.074 31 132.082 30.304C131.09 29.608 130.482 28.628 130.258 27.364L132.826 26.968C132.986 27.64 133.354 28.172 133.93 28.564C134.514 28.948 135.238 29.14 136.102 29.14C136.886 29.14 137.498 28.98 137.938 28.66C138.386 28.34 138.61 27.9 138.61 27.34C138.61 27.012 138.53 26.748 138.37 26.548C138.218 26.34 137.894 26.144 137.398 25.96C136.902 25.776 136.146 25.548 135.13 25.276C134.018 24.988 133.134 24.68 132.478 24.352C131.83 24.016 131.366 23.628 131.086 23.188C130.814 22.74 130.678 22.2 130.678 21.568C130.678 20.784 130.886 20.1 131.302 19.516C131.718 18.932 132.302 18.48 133.054 18.16C133.814 17.84 134.702 17.68 135.718 17.68C136.71 17.68 137.594 17.836 138.37 18.148C139.146 18.46 139.774 18.904 140.254 19.48C140.734 20.048 141.022 20.716 141.118 21.484L138.55 21.952C138.462 21.328 138.17 20.836 137.674 20.476C137.178 20.116 136.534 19.92 135.742 19.888C134.982 19.856 134.366 19.984 133.894 20.272C133.422 20.552 133.186 20.94 133.186 21.436C133.186 21.724 133.274 21.968 133.45 22.168C133.634 22.368 133.986 22.56 134.506 22.744C135.026 22.928 135.794 23.148 136.81 23.404C137.898 23.684 138.762 23.996 139.402 24.34C140.042 24.676 140.498 25.08 140.77 25.552C141.05 26.016 141.19 26.58 141.19 27.244C141.19 28.524 140.722 29.528 139.786 30.256C138.858 30.984 137.574 31.348 135.934 31.348ZM151.261 31C150.445 31.16 149.645 31.228 148.861 31.204C148.077 31.18 147.377 31.028 146.761 30.748C146.145 30.468 145.681 30.028 145.369 29.428C145.089 28.892 144.937 28.348 144.913 27.796C144.897 27.236 144.889 26.604 144.889 25.9V14.44H147.409V25.78C147.409 26.3 147.413 26.752 147.421 27.136C147.437 27.52 147.521 27.844 147.673 28.108C147.961 28.604 148.417 28.888 149.041 28.96C149.673 29.024 150.413 28.996 151.261 28.876V31ZM142.405 20.056V18.04H151.261V20.056H142.405ZM157.653 31.36C156.693 31.36 155.889 31.184 155.241 30.832C154.593 30.472 154.101 30 153.765 29.416C153.437 28.824 153.273 28.176 153.273 27.472C153.273 26.816 153.389 26.24 153.621 25.744C153.853 25.248 154.197 24.828 154.653 24.484C155.109 24.132 155.669 23.848 156.333 23.632C156.909 23.464 157.561 23.316 158.289 23.188C159.017 23.06 159.781 22.94 160.581 22.828C161.389 22.716 162.189 22.604 162.981 22.492L162.069 22.996C162.085 21.98 161.869 21.228 161.421 20.74C160.981 20.244 160.221 19.996 159.141 19.996C158.461 19.996 157.837 20.156 157.269 20.476C156.701 20.788 156.305 21.308 156.081 22.036L153.741 21.316C154.061 20.204 154.669 19.32 155.565 18.664C156.469 18.008 157.669 17.68 159.165 17.68C160.325 17.68 161.333 17.88 162.189 18.28C163.053 18.672 163.685 19.296 164.085 20.152C164.293 20.576 164.421 21.024 164.469 21.496C164.517 21.968 164.541 22.476 164.541 23.02V31H162.321V28.036L162.753 28.42C162.217 29.412 161.533 30.152 160.701 30.64C159.877 31.12 158.861 31.36 157.653 31.36ZM158.097 29.308C158.809 29.308 159.421 29.184 159.933 28.936C160.445 28.68 160.857 28.356 161.169 27.964C161.481 27.572 161.685 27.164 161.781 26.74C161.917 26.356 161.993 25.924 162.009 25.444C162.033 24.964 162.045 24.58 162.045 24.292L162.861 24.592C162.069 24.712 161.349 24.82 160.701 24.916C160.053 25.012 159.465 25.108 158.937 25.204C158.417 25.292 157.953 25.4 157.545 25.528C157.201 25.648 156.893 25.792 156.621 25.96C156.357 26.128 156.145 26.332 155.985 26.572C155.833 26.812 155.757 27.104 155.757 27.448C155.757 27.784 155.841 28.096 156.009 28.384C156.177 28.664 156.433 28.888 156.777 29.056C157.121 29.224 157.561 29.308 158.097 29.308ZM175.074 31C174.258 31.16 173.458 31.228 172.674 31.204C171.89 31.18 171.19 31.028 170.574 30.748C169.958 30.468 169.494 30.028 169.182 29.428C168.902 28.892 168.75 28.348 168.726 27.796C168.71 27.236 168.702 26.604 168.702 25.9V14.44H171.222V25.78C171.222 26.3 171.226 26.752 171.234 27.136C171.25 27.52 171.334 27.844 171.486 28.108C171.774 28.604 172.23 28.888 172.854 28.96C173.486 29.024 174.226 28.996 175.074 28.876V31ZM166.218 20.056V18.04H175.074V20.056H166.218ZM182.945 31.36C181.657 31.36 180.525 31.08 179.549 30.52C178.581 29.952 177.825 29.164 177.281 28.156C176.745 27.14 176.477 25.964 176.477 24.628C176.477 23.212 176.741 21.984 177.269 20.944C177.805 19.904 178.549 19.1 179.501 18.532C180.453 17.964 181.561 17.68 182.825 17.68C184.145 17.68 185.269 17.988 186.197 18.604C187.125 19.212 187.817 20.08 188.273 21.208C188.737 22.336 188.921 23.676 188.825 25.228H186.317V24.316C186.301 22.812 186.013 21.7 185.453 20.98C184.901 20.26 184.057 19.9 182.921 19.9C181.665 19.9 180.721 20.296 180.089 21.088C179.457 21.88 179.141 23.024 179.141 24.52C179.141 25.944 179.457 27.048 180.089 27.832C180.721 28.608 181.633 28.996 182.825 28.996C183.609 28.996 184.285 28.82 184.853 28.468C185.429 28.108 185.877 27.596 186.197 26.932L188.657 27.712C188.153 28.872 187.389 29.772 186.365 30.412C185.341 31.044 184.201 31.36 182.945 31.36ZM178.325 25.228V23.272H187.577V25.228H178.325Z" fill="#ECFDF5"/>
</svg>
