<svg width="24" height="24" viewBox="0 0 24 24" fill="none" xmlns="http://www.w3.org/2000/svg">
<path d="M13.3102 20.3999C11.9879 20.6065 10.6355 20.4979 9.36308 20.0829C8.09069 19.668 6.93425 18.9585 5.98791 18.0122C5.04156 17.0658 4.33205 15.9094 3.91713 14.637C3.50221 13.3646 3.39361 12.0122 3.60016 10.6899C3.07889 9.69842 2.88841 8.5662 3.05657 7.45873C3.22472 6.35125 3.74269 5.3266 4.53477 4.53452C5.32684 3.74244 6.3515 3.22448 7.45897 3.05632C8.56644 2.88817 9.69867 3.07865 10.6902 3.59991C12.0125 3.39336 13.3648 3.50197 14.6372 3.91689C15.9096 4.33181 17.0661 5.04132 18.0124 5.98766C18.9588 6.93401 19.6683 8.09044 20.0832 9.36284C20.4981 10.6352 20.6067 11.9876 20.4002 13.3099C20.9214 14.3014 21.1119 15.4336 20.9437 16.5411C20.7756 17.6486 20.2576 18.6732 19.4655 19.4653C18.6735 20.2574 17.6488 20.7754 16.5413 20.9435C15.4339 21.1117 14.3016 20.9212 13.3102 20.3999ZM12.0522 17.1559H12.0122C14.8842 17.1559 16.3152 15.7699 16.3152 13.9129C16.3152 12.7149 15.7642 11.4419 13.5892 10.9549L11.6062 10.5149C10.8512 10.3429 9.98416 10.1149 9.98416 9.39991C9.98416 8.68491 10.6042 8.18691 11.7082 8.18691C13.9382 8.18691 13.7352 9.71491 14.8392 9.71491C15.4152 9.71491 15.9322 9.37291 15.9322 8.78491C15.9322 7.41491 13.7352 6.38491 11.8762 6.38491C9.85516 6.38491 7.70316 7.24391 7.70316 9.52891C7.70316 10.6269 8.09716 11.7989 10.2632 12.3419L12.9522 13.0129C13.7682 13.2149 13.9702 13.6719 13.9702 14.0849C13.9702 14.7719 13.2862 15.4429 12.0522 15.4429C9.63516 15.4429 9.97416 13.5859 8.67816 13.5859C8.09816 13.5859 7.67516 13.9839 7.67516 14.5569C7.67516 15.6709 9.02716 17.1549 12.0522 17.1549V17.1559Z" fill="#94A3B8"/>
</svg>
